HIERARCHY
ROOT Hips
{
	OFFSET -3.958830 18.904000 13.208200
	CHANNELS 6 Xposition Yposition Zposition Zrotation Yrotation Xrotation 
	JOINT LHipJoint
	{
		OFFSET 0.000000 0.000000 0.000000
		CHANNELS 3 Zrotation Yrotation Xrotation
		JOINT LeftUpLeg
		{
			OFFSET 1.800000 -1.400000 0.085000
			CHANNELS 3 Zrotation Yrotation Xrotation
			JOINT LeftLeg
			{
				OFFSET 2.215000 -6.000000 0.000000
				CHANNELS 3 Zrotation Yrotation Xrotation
				JOINT LeftFoot
				{
					OFFSET 2.500000 -6.900000 0.000000
					CHANNELS 3 Zrotation Yrotation Xrotation
					JOINT LeftToeBase
					{
						OFFSET 0.200000 -0.500000 1.950000
						CHANNELS 3 Zrotation Yrotation Xrotation
						End Site
						{
							OFFSET 0.000000 0.000000 0.000000
						}
					}
				}
			}
		}
	}
	JOINT RHipJoint
	{
		OFFSET 0.000000 0.000000 0.000000
		CHANNELS 3 Zrotation Yrotation Xrotation
		JOINT RightUpLeg
		{
			OFFSET -1.800000 -1.400000 0.085000
			CHANNELS 3 Zrotation Yrotation Xrotation
			JOINT RightLeg
			{
				OFFSET -2.215000 -6.000000 0.000000
				CHANNELS 3 Zrotation Yrotation Xrotation
				JOINT RightFoot
				{
					OFFSET -2.500000 -6.900000 0.000000
					CHANNELS 3 Zrotation Yrotation Xrotation
					JOINT RightToeBase
					{
						OFFSET -0.200000 -0.500000 1.950000
						CHANNELS 3 Zrotation Yrotation Xrotation
						End Site
						{
							OFFSET 0.000000 0.000000 0.000000
						}
					}
				}
			}
		}
	}
	JOINT LowerBack
	{
		OFFSET 0.000000 0.000000 0.000000
		CHANNELS 3 Zrotation Yrotation Xrotation
		JOINT Spine
		{
			OFFSET -0.087000 1.940000 -0.288900
			CHANNELS 3 Zrotation Yrotation Xrotation
			JOINT Spine1
			{
				OFFSET 0.000000 1.950000 0.060000
				CHANNELS 3 Zrotation Yrotation Xrotation
				JOINT Neck
				{
					OFFSET 0.000000 0.000000 0.000000
					CHANNELS 3 Zrotation Yrotation Xrotation
					JOINT Neck1
					{
						OFFSET 0.000000 1.600000 0.340000
						CHANNELS 3 Zrotation Yrotation Xrotation
						JOINT Head
						{
							OFFSET 0.000000 1.667000 -0.240000
							CHANNELS 3 Zrotation Yrotation Xrotation
							End Site
							{
								OFFSET 0.000000 0.000000 0.000000
							}
						}
					}
				}
				JOINT LeftShoulder
				{
					OFFSET 0.000000 0.000000 0.000000
					CHANNELS 3 Zrotation Yrotation Xrotation
					JOINT LeftArm
					{
						OFFSET 2.700000 1.550000 -0.730000
						CHANNELS 3 Zrotation Yrotation Xrotation
						JOINT LeftForeArm
						{
							OFFSET 5.450000 0.000000 0.000000
							CHANNELS 3 Zrotation Yrotation Xrotation
							JOINT LeftHand
							{
								OFFSET 3.450000 0.000000 0.000000
								CHANNELS 3 Zrotation Yrotation Xrotation
								JOINT LeftHandIndex1
								{
									OFFSET 0.750000 0.000000 0.000000
									CHANNELS 3 Zrotation Yrotation Xrotation
									End Site
									{
										OFFSET 0.000000 0.000000 0.000000
									}
								}
							}
						}
					}
				}
				JOINT RightShoulder
				{
					OFFSET 0.000000 0.000000 0.000000
					CHANNELS 3 Zrotation Yrotation Xrotation
					JOINT RightArm
					{
						OFFSET -2.700000 1.550000 -0.730000
						CHANNELS 3 Zrotation Yrotation Xrotation
						JOINT RightForeArm
						{
							OFFSET -5.450000 0.000000 0.000000
							CHANNELS 3 Zrotation Yrotation Xrotation
							JOINT RightHand
							{
								OFFSET -3.450000 0.000000 0.000000
								CHANNELS 3 Zrotation Yrotation Xrotation
								JOINT RightHandIndex1
								{
									OFFSET -0.750000 0.000000 0.000000
									CHANNELS 3 Zrotation Yrotation Xrotation
									End Site
									{
										OFFSET 0.000000 0.000000 0.000000
									}
								}
							}
						}
					}
				}
			}
		}
	}
}
MOTION
Frames: 9
Frame Time: 0.016667
0.073090 13.288320 0.157030 -63.167612 10.626663 -61.075100 -15.060574 11.749184 2.690416 -3.856805 -1.869958 -34.095786 12.469951 6.405032 55.619070 0.344413 9.302952 1.257129 0.213760 0.080890 -0.057650 18.649158 -8.946254 5.271773 -19.254230 19.552753 -29.677150 49.656076 -25.586568 41.379065 -2.112846 -11.071206 0.639845 0.119760 0.564220 0.217010 -4.368875 -0.148127 -9.019166 30.011980 -4.610056 48.281025 -9.443803 3.201744 25.728912 12.754590 0.654083 -13.104165 3.864403 1.974099 45.202746 10.787230 -4.702680 -12.509710 -16.678373 -32.915426 18.628270 -25.042159 -1.369106 1.210992 14.025836 2.838905 -0.744854 -3.892887 2.951140 0.481790 0.129710 -0.058430 0.157670 -6.830294 39.927100 -3.122136 -22.056127 35.144937 -23.326355 -69.413546 42.531369 -28.156334 2.586693 -1.149742 -0.242620 0.482660 0.278380 0.043270 
0.063360 13.236200 0.183140 -60.838421 9.273040 -59.830072 -15.014639 11.146981 2.793122 -6.301459 -2.501230 -38.334579 17.598925 4.392196 60.110608 0.487051 10.217733 0.982109 0.163440 -0.004520 -0.131490 18.802810 -8.548976 5.666566 -23.932545 20.253754 -32.536079 66.662575 -27.741726 33.905517 -2.248041 -11.204551 0.637235 0.119260 0.659280 0.210490 -4.619954 0.336612 -9.293522 30.593419 -4.656903 47.285484 -11.287375 3.502839 25.160243 12.942037 -0.978758 -12.720107 1.195061 3.594867 45.852726 11.358120 -5.320610 -10.564440 -16.816987 -31.483617 18.254385 -25.631334 -0.227940 1.295192 14.028639 2.513708 -0.749524 -3.954624 2.934514 0.475940 0.180010 -0.142010 0.161540 -6.957874 39.716828 -4.040875 -22.368473 38.492975 -23.300364 -64.404666 41.950022 -25.593073 2.570972 -1.183815 -0.307060 0.518700 0.344720 0.044730 
0.101150 13.193750 0.179250 -56.920493 9.444274 -59.052610 -15.062547 10.844811 2.943270 -9.408413 -3.220977 -40.832855 19.570513 3.973772 62.999527 0.659278 10.816743 0.816396 0.114140 -0.057970 -0.176330 18.813134 -8.151941 5.924160 -28.603467 19.875567 -33.124838 80.306165 -26.845295 26.872086 -2.275947 -10.940755 0.736490 0.087700 0.701370 0.200860 -4.551672 0.238543 -9.521634 27.902763 -3.379508 48.218519 -12.324989 4.308810 24.453770 12.876394 -1.289223 -12.923927 0.626822 4.285617 47.886201 12.181040 -5.754430 -9.101870 -17.836163 -31.601517 18.615724 -26.072145 1.297073 1.062732 14.597620 3.420965 -0.603279 -3.979629 2.910672 0.471800 0.193230 -0.163330 0.155790 -6.098145 40.809193 -4.580742 -22.319811 40.002106 -23.374262 -60.017532 42.125096 -23.621557 2.618199 -1.184585 -0.323640 0.536300 0.376150 0.060080 
0.137520 13.201480 0.187230 -53.038356 9.058008 -59.145400 -15.154217 10.848858 2.981708 -9.955806 -2.911181 -43.561000 20.019785 4.727354 65.767278 0.873204 11.275170 0.643912 0.158510 0.004660 -0.131810 18.722328 -7.834908 6.071951 -30.100555 20.159192 -30.682051 90.851698 -24.503095 21.310750 -2.320692 -10.581691 0.838931 0.065100 0.593820 0.226600 -4.276356 -0.179543 -9.676321 24.764837 -1.145431 50.258873 -12.053222 6.185413 23.351682 12.728262 0.054419 -13.681330 3.137304 3.420425 51.109844 11.911900 -5.597150 -7.676550 -19.647263 -32.736984 19.519516 -25.731231 2.812162 0.814042 14.627055 4.463330 -0.376060 -3.905161 2.998187 0.457130 0.147650 -0.094860 0.153920 -4.630288 42.706748 -4.992208 -21.064483 40.473319 -22.851603 -56.945441 42.663213 -22.274574 2.736665 -1.251742 -0.230190 0.430610 0.312830 0.065200 
0.142840 13.190690 0.196500 -48.772459 8.256180 -58.580110 -15.219144 10.732033 2.964677 -10.744644 -2.508411 -47.165796 21.121045 4.949639 66.566174 0.918869 11.463529 0.571634 0.206350 0.044380 -0.068370 18.685431 -7.490824 6.319199 -31.518735 20.314730 -29.007097 103.121722 -21.871987 16.142499 -2.338532 -10.167904 0.980110 0.074610 0.552160 0.226290 -4.105410 -0.380455 -9.820380 22.127680 1.177595 51.480369 -12.213973 8.232653 22.564996 12.815451 -0.069002 -13.921535 3.040365 4.033357 52.714032 11.632360 -4.854640 -7.311110 -20.258208 -32.866690 19.762291 -25.976580 3.587937 0.673816 14.702641 4.450457 -0.343728 -3.876321 3.000370 0.470570 0.127180 -0.065520 0.158610 -4.667895 44.384822 -5.935398 -19.588945 40.439554 -22.664489 -54.791038 42.566262 -21.374481 2.842235 -1.300734 -0.210700 0.417430 0.271910 0.049620 
0.148810 13.184140 0.207030 -47.353542 8.383506 -58.803555 -15.247776 10.545266 3.133913 -12.458550 -3.325046 -50.244112 25.211696 2.285167 66.584049 0.926936 11.610280 0.511167 0.193100 0.053680 -0.085470 18.671196 -7.293113 6.348947 -30.789044 19.744812 -24.598533 109.710160 -19.687667 12.688067 -2.271560 -9.700893 1.108400 0.087720 0.548810 0.208520 -4.043668 -0.456038 -9.920360 21.282056 1.540219 52.288231 -12.804871 8.783993 22.409946 13.095356 -0.288376 -13.964411 2.651715 4.338104 54.070700 11.522550 -4.800280 -8.240080 -20.768371 -32.926634 19.897723 -25.693412 4.318170 0.464358 15.166088 4.225032 -0.386604 -3.876617 2.953574 0.496380 0.116520 -0.050710 0.146190 -4.831263 45.030605 -6.797654 -19.064513 40.337444 -22.754903 -52.420761 41.435710 -20.019027 2.863071 -1.286206 -0.229590 0.454800 0.295620 0.046540 
0.125610 13.130840 0.231200 -44.636372 8.968021 -57.625821 -15.330210 10.217617 3.420066 -15.900833 -4.955807 -54.725507 31.344713 -1.264753 66.608836 1.124894 12.056045 0.402818 0.214040 0.108660 -0.107680 18.655942 -6.938183 6.464862 -33.198926 19.153470 -23.507527 115.224656 -18.782524 10.739389 -2.227374 -9.412147 1.224001 0.103490 0.540380 0.186420 -3.884886 -0.571752 -10.101705 18.630284 3.427555 52.227817 -12.558669 10.054840 21.625411 12.797284 -0.439817 -14.011100 2.262786 4.455022 54.744211 11.979470 -5.130250 -7.486060 -20.194659 -32.581795 19.697156 -26.061684 4.270134 0.330383 15.177207 3.836728 -0.357224 -3.850980 2.982811 0.460240 0.110020 -0.051620 0.175820 -5.089697 45.586096 -7.197810 -17.525834 39.425181 -22.152386 -51.047058 41.241094 -19.547473 2.930658 -1.344020 -0.202110 0.446430 0.261850 0.073250 
0.134280 13.078530 0.267190 -42.847184 8.659889 -57.105778 -15.386786 9.932358 3.720080 -19.102112 -6.716510 -58.442617 40.173351 -6.400462 64.778946 1.373302 12.970884 0.157871 0.215450 0.080160 -0.089720 18.644550 -6.724629 6.450932 -34.608577 19.314388 -21.841601 118.282955 -19.140047 10.028343 -2.198131 -9.307422 1.233993 0.096070 0.537570 0.212660 -3.772519 -0.565937 -10.239248 17.766146 4.298092 51.856658 -12.730550 11.024341 21.464867 13.393552 -0.646144 -14.131498 2.105069 4.290338 55.588028 11.429450 -5.701170 -7.162890 -19.592787 -32.312652 19.625308 -27.799506 4.402499 -0.216707 16.967593 2.903958 -0.494985 -3.870983 3.021995 0.465820 0.112100 -0.054950 0.161950 -6.887646 46.113192 -8.183904 -15.538758 37.276634 -21.786544 -49.662304 40.457435 -18.888525 3.057569 -1.411820 -0.200180 0.426820 0.274640 0.064610 
0.144160 13.006420 0.295980 -37.745252 7.504734 -56.463990 -15.497742 9.879730 3.803019 -22.672996 -7.611408 -62.548586 51.860865 -11.169104 61.596574 1.734949 14.386839 -0.238362 0.223290 0.072600 -0.061310 18.581272 -6.460630 6.522869 -38.645928 20.644644 -22.898985 121.162662 -21.190577 10.951827 -2.238450 -9.472586 1.172572 0.100150 0.481350 0.221930 -3.487754 -0.790949 -10.289005 14.411334 7.196248 52.535261 -12.946227 13.338457 20.383603 13.841476 -1.133244 -14.087246 1.218161 4.110498 56.747411 10.135650 -6.123500 -7.977630 -18.962626 -31.589706 19.306451 -29.850519 4.506701 -0.822218 18.897802 2.785839 -0.521514 -3.879390 3.044341 0.494440 0.087400 -0.040490 0.121940 -8.776367 47.247505 -9.851913 -14.016621 36.042351 -21.482342 -46.314246 38.945812 -17.141204 3.192467 -1.466990 -0.197800 0.392340 0.288550 0.036420 
